<svg width="1600" height="700" viewBox="0 0 1600 700" fill="none" xmlns="http://www.w3.org/2000/svg">
  <defs>
    <linearGradient id="bg" x1="0" y1="0" x2="1600" y2="700" gradientUnits="userSpaceOnUse">
      <stop offset="0" stop-color="#1D2550"/>
      <stop offset="0.55" stop-color="#2B3C79"/>
      <stop offset="1" stop-color="#0E1528"/>
    </linearGradient>
    <radialGradient id="glowA" cx="0" cy="0" r="1" gradientUnits="userSpaceOnUse" gradientTransform="translate(1320 120) rotate(125) scale(380 380)">
      <stop stop-color="#7FC4FF" stop-opacity="0.52"/>
      <stop offset="1" stop-color="#7FC4FF" stop-opacity="0"/>
    </radialGradient>
    <radialGradient id="glowB" cx="0" cy="0" r="1" gradientUnits="userSpaceOnUse" gradientTransform="translate(280 620) rotate(-25) scale(420 260)">
      <stop stop-color="#FF6BC4" stop-opacity="0.36"/>
      <stop offset="1" stop-color="#FF6BC4" stop-opacity="0"/>
    </radialGradient>
    <linearGradient id="card" x1="0" y1="0" x2="1" y2="1">
      <stop offset="0" stop-color="#FFFFFF" stop-opacity="0.28"/>
      <stop offset="1" stop-color="#FFFFFF" stop-opacity="0.04"/>
    </linearGradient>
  </defs>

  <rect width="1600" height="700" rx="40" fill="url(#bg)"/>
  <ellipse cx="1320" cy="120" rx="420" ry="350" fill="url(#glowA)"/>
  <ellipse cx="280" cy="620" rx="520" ry="280" fill="url(#glowB)"/>

  <g opacity="0.58">
    <rect x="900" y="92" width="540" height="300" rx="28" fill="url(#card)" stroke="#FFFFFF" stroke-opacity="0.25"/>
    <rect x="940" y="132" width="190" height="180" rx="18" fill="#FFFFFF" fill-opacity="0.14"/>
    <rect x="1150" y="132" width="250" height="28" rx="14" fill="#FFFFFF" fill-opacity="0.18"/>
    <rect x="1150" y="174" width="224" height="20" rx="10" fill="#FFFFFF" fill-opacity="0.16"/>
    <rect x="1150" y="208" width="176" height="20" rx="10" fill="#FFFFFF" fill-opacity="0.14"/>
    <rect x="1150" y="250" width="190" height="44" rx="22" fill="#FF6DBD" fill-opacity="0.86"/>
  </g>

  <g opacity="0.26" stroke="#FFFFFF">
    <path d="M80 130H760"/>
    <path d="M80 196H610"/>
    <path d="M80 262H710"/>
    <path d="M80 328H560"/>
  </g>
</svg>
