<svg width="1600" height="700" viewBox="0 0 1600 700" fill="none" xmlns="http://www.w3.org/2000/svg">
  <defs>
    <linearGradient id="bg2" x1="0" y1="0" x2="1600" y2="700" gradientUnits="userSpaceOnUse">
      <stop offset="0" stop-color="#42144A"/>
      <stop offset="0.55" stop-color="#7A246A"/>
      <stop offset="1" stop-color="#241233"/>
    </linearGradient>
    <radialGradient id="promoGlow" cx="0" cy="0" r="1" gradientUnits="userSpaceOnUse" gradientTransform="translate(1260 120) rotate(130) scale(420 420)">
      <stop stop-color="#FFA4E8" stop-opacity="0.55"/>
      <stop offset="1" stop-color="#FFA4E8" stop-opacity="0"/>
    </radialGradient>
    <radialGradient id="promoGlow2" cx="0" cy="0" r="1" gradientUnits="userSpaceOnUse" gradientTransform="translate(260 600) rotate(-18) scale(440 260)">
      <stop stop-color="#7AB9FF" stop-opacity="0.35"/>
      <stop offset="1" stop-color="#7AB9FF" stop-opacity="0"/>
    </radialGradient>
  </defs>

  <rect width="1600" height="700" rx="40" fill="url(#bg2)"/>
  <ellipse cx="1260" cy="120" rx="430" ry="360" fill="url(#promoGlow)"/>
  <ellipse cx="260" cy="600" rx="500" ry="280" fill="url(#promoGlow2)"/>

  <g opacity="0.78">
    <rect x="940" y="110" width="520" height="270" rx="28" fill="#FFFFFF" fill-opacity="0.12" stroke="#FFFFFF" stroke-opacity="0.22"/>
    <circle cx="1088" cy="245" r="95" fill="#2CD06F"/>
    <text x="1088" y="258" text-anchor="middle" font-family="Arial, sans-serif" font-size="70" font-weight="700" fill="#FFFFFF">-10%</text>
    <rect x="1206" y="164" width="208" height="20" rx="10" fill="#FFFFFF" fill-opacity="0.2"/>
    <rect x="1206" y="198" width="170" height="16" rx="8" fill="#FFFFFF" fill-opacity="0.18"/>
    <rect x="1206" y="228" width="234" height="16" rx="8" fill="#FFFFFF" fill-opacity="0.18"/>
    <rect x="1206" y="268" width="196" height="42" rx="21" fill="#FF74C7" fill-opacity="0.92"/>
  </g>

  <g opacity="0.24" stroke="#FFFFFF">
    <path d="M90 140H760"/>
    <path d="M90 206H660"/>
    <path d="M90 272H700"/>
    <path d="M90 338H560"/>
  </g>
</svg>
